Coordinates
version=1
nRows=9
nColumns=24
inDegrees=yes

Units are S.I. units (second, meters, Newtons, ...)
Angles are in degrees.

endheader
time	pelvis_tilt	pelvis_list	pelvis_rotation	pelvis_tx	pelvis_ty	pelvis_tz	hip_flexion_r	hip_adduction_r	hip_rotation_r	knee_angle_r	ankle_angle_r	subtalar_angle_r	mtp_angle_r	hip_flexion_l	hip_adduction_l	hip_rotation_l	knee_angle_l	ankle_angle_l	subtalar_angle_l	mtp_angle_l	lumbar_extension	lumbar_bending	lumbar_rotation
      0.74966667	      1.71099391	     -2.87938286	      7.28415319	     -0.41445418	      1.04108856	      0.29743840	      4.49759001	      8.56741139	     -2.65293705	     -7.98396474	      1.46898586	    -12.32903891	      9.94987069	     14.78694974	     -4.76893782	     -0.70711166	    -64.42246861	     -0.27532781	     -2.07096344	      5.62417420	     -6.61673647	      1.04901782	     -3.37714160
      0.75383333	      1.73356221	     -2.75718758	      7.13542884	     -0.40911973	      1.04153677	      0.29787558	      4.06492293	      8.52821678	     -2.34023984	     -7.85600968	      1.49027203	    -12.53147641	      9.50961962	     15.20151789	     -4.66854311	     -0.84854670	    -64.08752727	      0.56858201	     -2.60508583	      4.94959263	     -6.68930930	      0.84729449	     -3.03252809
      0.75800000	      1.74052414	     -2.60408262	      6.99945230	     -0.40380521	      1.04198128	      0.29821082	      3.68380588	      8.42873156	     -2.20763059	     -7.81084754	      1.62178495	    -12.47858961	      9.48425197	     15.60819476	     -4.50940425	     -0.96565552	    -63.66387418	      1.31154995	     -3.18396828	      4.91622730	     -6.76921760	      0.66180870	     -2.98455038
      0.76216667	      1.79888873	     -2.44167761	      6.86139667	     -0.39848878	      1.04251485	      0.29855326	      3.21919423	      8.32626313	     -2.02775449	     -7.70958860	      1.75291062	    -12.40715598	      9.41010921	     15.93322042	     -4.34454161	     -1.07798586	    -63.15437332	      1.94929091	     -3.74325387	      4.81150612	     -6.90650814	      0.45326988	     -2.75621086
      0.76633333	      1.78762629	     -2.28706370	      6.70799390	     -0.39320292	      1.04291405	      0.29890913	      2.85216820	      8.21927264	     -1.86106352	     -7.64975768	      1.88093061	    -12.37783596	      9.34465850	     16.32295449	     -4.18372598	     -1.20260394	    -62.59289298	      2.58073220	     -4.20176933	      4.72493792	     -6.97047252	      0.25477431	     -2.60066420
      0.77050000	      1.79510712	     -2.13220291	      6.56024427	     -0.38791397	      1.04333420	      0.29925501	      2.45398436	      8.11165816	     -1.71298254	     -7.56239917	      1.99750754	    -12.32897879	      9.27352671	     16.67284531	     -4.02469006	     -1.32132935	    -61.95945080	      3.15706650	     -4.61863220	      4.63331798	     -7.04513396	      0.05423304	     -2.43088856
      0.77466667	      1.76834155	     -1.98681261	      6.41156652	     -0.38262706	      1.04368609	      0.29960286	      2.09576859	      8.00660065	     -1.58328695	     -7.48085962	      2.15506108	    -12.22556150	      8.47233831	     17.04733614	     -3.87373036	     -1.43622146	    -61.27378977	      3.74044409	     -4.91773702	      3.60446817	     -7.05979447	     -0.16615533	     -2.03340626
      0.77883333	      1.79542383	     -1.82768603	      6.25633453	     -0.37736643	      1.04410929	      0.29992714	      1.67273444	      7.88909685	     -1.44283190	     -7.38097330	      2.26149356	    -12.17692607	      8.43741974	     17.33405282	     -3.71161566	     -1.56049751	    -60.49869585	      4.18988641	     -5.28350530	      3.56156312	     -7.17346289	     -0.35620540	     -2.04640249
      0.78300000	      1.79763188	     -1.66870326	      6.10561563	     -0.37210724	      1.04447665	      0.30023805	      1.27520816	      7.76547374	     -1.31643173	     -7.27704619	      2.37940807	    -12.11164184	      8.39524658	     17.62968950	     -3.54312047	     -1.67337817	    -59.66029622	      4.61178673	     -5.56821659	      3.51113949	     -7.25069300	     -0.56573510	     -1.93033702
